<svg width="40" height="40" viewBox="0 0 40 40" fill="none" xmlns="http://www.w3.org/2000/svg">
<g clip-path="url(#clip0_177_2272)">
<g filter="url(#filter0_d_177_2272)">
<path d="M13.75 13.75C13.0596 13.75 12.5 14.3096 12.5 15C12.5 15.6904 13.0596 16.25 13.75 16.25H18.75C19.4404 16.25 20 15.6904 20 15C20 14.3096 19.4404 13.75 18.75 13.75H13.75Z" fill="#5F5F5F"/>
<path d="M12.5 25C12.5 24.3096 13.0596 23.75 13.75 23.75H23.75C24.4404 23.75 25 24.3096 25 25C25 25.6904 24.4404 26.25 23.75 26.25H13.75C13.0596 26.25 12.5 25.6904 12.5 25Z" fill="#5F5F5F"/>
<path d="M13.75 18.75C13.0596 18.75 12.5 19.3096 12.5 20C12.5 20.6904 13.0596 21.25 13.75 21.25H26.25C26.9404 21.25 27.5 20.6904 27.5 20C27.5 19.3096 26.9404 18.75 26.25 18.75H13.75Z" fill="#5F5F5F"/>
<path fill-rule="evenodd" clip-rule="evenodd" d="M20 5C11.7157 5 5 11.7157 5 20C5 28.2843 11.7157 35 20 35C22.4113 35 24.693 34.4301 26.7145 33.4166C26.7269 33.4174 26.7416 33.4186 26.7588 33.4204C26.9028 33.4357 27.1183 33.4833 27.4176 33.5765C27.8999 33.7267 28.4467 33.9444 29.061 34.189C29.2214 34.2528 29.3864 34.3185 29.5561 34.3853C30.3267 34.6888 31.2007 35.0177 31.9845 35.1758C32.3788 35.2554 32.8201 35.3071 33.2552 35.2603C33.6995 35.2125 34.2159 35.0517 34.6337 34.634C35.0516 34.2163 35.2126 33.6998 35.2604 33.2555C35.3072 32.8203 35.2555 32.3791 35.1759 31.9847C35.0177 31.201 34.6887 30.3272 34.3852 29.5566C34.3185 29.3874 34.253 29.2228 34.1893 29.0628C33.9445 28.4481 33.7265 27.9008 33.5763 27.4183C33.4831 27.119 33.4355 26.9034 33.4203 26.7594L33.418 26.7359L33.4165 26.7148C34.43 24.6932 35 22.4114 35 20C35 11.7157 28.2843 5 20 5ZM7.5 20C7.5 13.0964 13.0964 7.5 20 7.5C26.9036 7.5 32.5 13.0964 32.5 20C32.5 22.0482 32.0083 23.9779 31.1377 25.681C30.8922 26.1613 30.8967 26.6693 30.9342 27.0228C30.9743 27.4017 31.0752 27.795 31.1893 28.1616C31.3714 28.7461 31.6371 29.4127 31.8858 30.0364C31.945 30.1849 32.0032 30.3309 32.0591 30.4728C32.3691 31.2598 32.6166 31.9411 32.7253 32.4794C32.7488 32.5958 32.7628 32.6921 32.7705 32.7704C32.6921 32.7628 32.5955 32.7487 32.4789 32.7252C31.9405 32.6166 31.259 32.3691 30.472 32.0592C30.3298 32.0032 30.1835 31.9448 30.0347 31.8855C29.4112 31.637 28.7451 31.3715 28.161 31.1896C27.7946 31.0755 27.4014 30.9746 27.0226 30.9344C26.6694 30.8969 26.1613 30.8922 25.681 31.1377C23.9779 32.0083 22.0482 32.5 20 32.5C13.0964 32.5 7.5 26.9036 7.5 20ZM33.4154 26.6677C33.4159 26.6638 33.416 26.6617 33.4159 26.6617C33.4159 26.6617 33.4159 26.6614 33.4159 26.6617C33.4159 26.6619 33.4157 26.6626 33.4157 26.663L33.4154 26.6677Z" fill="#5F5F5F"/>
</g>
</g>
<defs>
<filter id="filter0_d_177_2272" x="1" y="5" width="38.2781" height="38.2778" filterUnits="userSpaceOnUse" color-interpolation-filters="sRGB">
<feFlood flood-opacity="0" result="BackgroundImageFix"/>
<feColorMatrix in="SourceAlpha" type="matrix" values="0 0 0 0 0 0 0 0 0 0 0 0 0 0 0 0 0 0 127 0" result="hardAlpha"/>
<feOffset dy="4"/>
<feGaussianBlur stdDeviation="2"/>
<feComposite in2="hardAlpha" operator="out"/>
<feColorMatrix type="matrix" values="0 0 0 0 0 0 0 0 0 0 0 0 0 0 0 0 0 0 0.25 0"/>
<feBlend mode="normal" in2="BackgroundImageFix" result="effect1_dropShadow_177_2272"/>
<feBlend mode="normal" in="SourceGraphic" in2="effect1_dropShadow_177_2272" result="shape"/>
</filter>
<clipPath id="clip0_177_2272">
<rect width="40" height="40" fill="white"/>
</clipPath>
</defs>
</svg>
