<svg width="34" height="34" viewBox="0 0 34 34" fill="none" xmlns="http://www.w3.org/2000/svg">
<path fill-rule="evenodd" clip-rule="evenodd" d="M17.8839 3.40164C17.3957 2.91348 16.6043 2.91348 16.1161 3.40164L4.50999 15.0078C3.73591 15.7818 3.33873 16.8555 3.42269 17.947L4.31875 29.5959C4.36885 30.2471 4.9119 30.75 5.56507 30.75H13.25V24.5C13.25 22.4289 14.9289 20.75 17 20.75C19.0711 20.75 20.75 22.4289 20.75 24.5V30.75H28.4349C29.0881 30.75 29.6311 30.2471 29.6812 29.5959L30.5773 17.947C30.6613 16.8555 30.2641 15.7818 29.49 15.0078L17.8839 3.40164ZM14.3483 1.63387C15.8128 0.169406 18.1872 0.169406 19.6516 1.63387L31.2578 13.24C32.5479 14.5301 33.2099 16.3196 33.0699 18.1388L32.1739 29.7876C32.0236 31.7413 30.3944 33.25 28.4349 33.25H20.75C19.3693 33.25 18.25 32.1307 18.25 30.75V24.5C18.25 23.8096 17.6903 23.25 17 23.25C16.3096 23.25 15.75 23.8096 15.75 24.5V30.75C15.75 32.1307 14.6307 33.25 13.25 33.25H5.56507C3.60556 33.25 1.9764 31.7413 1.82612 29.7876L0.930052 18.1388C0.790118 16.3196 1.45209 14.5301 2.74223 13.24L14.3483 1.63387Z" fill="#5F5F5F"/>
</svg>
