<svg width="40" height="40" viewBox="0 0 40 40" fill="none" xmlns="http://www.w3.org/2000/svg">
<g opacity="0.5">
<path fill-rule="evenodd" clip-rule="evenodd" d="M20.8839 6.40176C20.3957 5.91361 19.6043 5.91361 19.1161 6.40176L7.50999 18.0079C6.73591 18.782 6.33873 19.8556 6.42269 20.9471L7.31875 32.596C7.36885 33.2472 7.9119 33.7501 8.56507 33.7501H16.25V27.5001C16.25 25.429 17.9289 23.7501 20 23.7501C22.0711 23.7501 23.75 25.429 23.75 27.5001V33.7501H31.4349C32.0881 33.7501 32.6311 33.2472 32.6812 32.596L33.5773 20.9471C33.6613 19.8556 33.2641 18.782 32.49 18.0079L20.8839 6.40176ZM17.3483 4.63399C18.8128 3.16953 21.1872 3.16953 22.6516 4.63399L34.2578 16.2401C35.5479 17.5303 36.2099 19.3197 36.0699 21.1389L35.1739 32.7877C35.0236 34.7415 33.3944 36.2501 31.4349 36.2501H23.75C22.3693 36.2501 21.25 35.1308 21.25 33.7501V27.5001C21.25 26.8098 20.6903 26.2501 20 26.2501C19.3096 26.2501 18.75 26.8098 18.75 27.5001V33.7501C18.75 35.1308 17.6307 36.2501 16.25 36.2501H8.56507C6.60556 36.2501 4.9764 34.7415 4.82612 32.7877L3.93005 21.1389C3.79012 19.3197 4.45209 17.5303 5.74223 16.2401L17.3483 4.63399Z" fill="#5F5F5F"/>
</g>
</svg>
