<svg width="40" height="40" viewBox="0 0 40 40" fill="none" xmlns="http://www.w3.org/2000/svg">
<g opacity="0.5">
<path fill-rule="evenodd" clip-rule="evenodd" d="M20 3.75C15.8578 3.75 12.5 7.10786 12.5 11.25C12.5 15.3921 15.8578 18.75 20 18.75C24.1421 18.75 27.5 15.3921 27.5 11.25C27.5 7.10786 24.1421 3.75 20 3.75ZM15 11.25C15 8.48858 17.2385 6.25 20 6.25C22.7614 6.25 25 8.48858 25 11.25C25 14.0114 22.7614 16.25 20 16.25C17.2385 16.25 15 14.0114 15 11.25Z" fill="#5F5F5F"/>
<path fill-rule="evenodd" clip-rule="evenodd" d="M20 20C14.2455 20 10.6878 21.79 8.60529 24.3536C6.56348 26.867 6.12379 29.9031 6.11769 32.059C6.11037 34.6492 8.36199 36.25 10.6151 36.25H29.3849C31.638 36.25 33.8896 34.6492 33.8823 32.059C33.8762 29.9031 33.4365 26.867 31.3947 24.3536C29.3122 21.79 25.7545 20 20 20ZM8.61768 32.0661C8.62301 30.1831 9.01598 27.813 10.5457 25.9299C12.0348 24.0968 14.7875 22.5 20 22.5C25.2125 22.5 27.9652 24.0968 29.4542 25.9299C30.984 27.813 31.3769 30.1832 31.3823 32.0661C31.3848 32.9477 30.6036 33.75 29.3849 33.75H10.6151C9.39632 33.75 8.61519 32.9477 8.61768 32.0661Z" fill="#5F5F5F"/>
</g>
</svg>
