<svg width="40" height="40" viewBox="0 0 40 40" fill="none" xmlns="http://www.w3.org/2000/svg">
<g opacity="0.5">
<path fill-rule="evenodd" clip-rule="evenodd" d="M32.75 4C30.6789 4 29 5.67893 29 7.75C29 8.30027 29.1185 8.82285 29.3314 9.29362L22.6964 14.9078C22.0397 14.3421 21.1848 14 20.25 14C19.0018 14 17.8961 14.6098 17.2145 15.5477L11.4781 13.1576C11.4926 13.0237 11.5 12.8877 11.5 12.75C11.5 10.6789 9.82107 9 7.75 9C5.67893 9 4 10.6789 4 12.75C4 14.8211 5.67893 16.5 7.75 16.5C8.77988 16.5 9.7128 16.0848 10.3905 15.4127L16.5058 17.9608C16.6151 19.9338 18.2497 21.5 20.25 21.5C22.3211 21.5 24 19.8211 24 17.75C24 17.5366 23.9822 17.3274 23.9479 17.1238L31.0655 11.1013C31.5719 11.3563 32.1442 11.5 32.75 11.5C34.8211 11.5 36.5 9.82107 36.5 7.75C36.5 5.67893 34.8211 4 32.75 4ZM31.5 7.75C31.5 7.05964 32.0596 6.5 32.75 6.5C33.4404 6.5 34 7.05964 34 7.75C34 8.44036 33.4404 9 32.75 9C32.0596 9 31.5 8.44036 31.5 7.75ZM6.5 12.75C6.5 12.0596 7.05964 11.5 7.75 11.5C8.44036 11.5 9 12.0596 9 12.75C9 13.4404 8.44036 14 7.75 14C7.05964 14 6.5 13.4404 6.5 12.75ZM20.25 16.5C19.5596 16.5 19 17.0596 19 17.75C19 18.4404 19.5596 19 20.25 19C20.9404 19 21.5 18.4404 21.5 17.75C21.5 17.0596 20.9404 16.5 20.25 16.5Z" fill="#5F5F5F"/>
<path fill-rule="evenodd" clip-rule="evenodd" d="M4 22.75C4 20.6789 5.67893 19 7.75 19C9.82107 19 11.5 20.6789 11.5 22.75V35.25C11.5 35.9404 10.9404 36.5 10.25 36.5H5.25C4.55964 36.5 4 35.9404 4 35.25V22.75ZM7.75 21.5C7.05964 21.5 6.5 22.0596 6.5 22.75V34H9V22.75C9 22.0596 8.44036 21.5 7.75 21.5Z" fill="#5F5F5F"/>
<path fill-rule="evenodd" clip-rule="evenodd" d="M20.25 24C18.1789 24 16.5 25.6789 16.5 27.75V35.25C16.5 35.9404 17.0596 36.5 17.75 36.5H22.75C23.4404 36.5 24 35.9404 24 35.25V27.75C24 25.6789 22.3211 24 20.25 24ZM19 27.75C19 27.0596 19.5596 26.5 20.25 26.5C20.9404 26.5 21.5 27.0596 21.5 27.75V34H19V27.75Z" fill="#5F5F5F"/>
<path fill-rule="evenodd" clip-rule="evenodd" d="M29 17.75C29 15.6789 30.6789 14 32.75 14C34.8211 14 36.5 15.6789 36.5 17.75V35.25C36.5 35.9404 35.9404 36.5 35.25 36.5H30.25C29.5596 36.5 29 35.9404 29 35.25V17.75ZM32.75 16.5C32.0596 16.5 31.5 17.0596 31.5 17.75V34H34V17.75C34 17.0596 33.4404 16.5 32.75 16.5Z" fill="#5F5F5F"/>
</g>
</svg>
